<svg id="my-svg" width="100%" xmlns="http://www.w3.org/2000/svg" xmlns:xlink="http://www.w3.org/1999/xlink" style="max-width: 662.492px; background-color: white;" viewBox="-154.4921875 -20.5 662.4921875 427.575927734375" role="graphics-document document" aria-roledescription="gitGraph"><style>#my-svg{font-family:"trebuchet ms",verdana,arial,sans-serif;font-size:16px;fill:#333;}@keyframes edge-animation-frame{from{stroke-dashoffset:0;}}@keyframes dash{to{stroke-dashoffset:0;}}#my-svg .edge-animation-slow{stroke-dasharray:9,5!important;stroke-dashoffset:900;animation:dash 50s linear infinite;stroke-linecap:round;}#my-svg .edge-animation-fast{stroke-dasharray:9,5!important;stroke-dashoffset:900;animation:dash 20s linear infinite;stroke-linecap:round;}#my-svg .error-icon{fill:#552222;}#my-svg .error-text{fill:#552222;stroke:#552222;}#my-svg .edge-thickness-normal{stroke-width:1px;}#my-svg .edge-thickness-thick{stroke-width:3.5px;}#my-svg .edge-pattern-solid{stroke-dasharray:0;}#my-svg .edge-thickness-invisible{stroke-width:0;fill:none;}#my-svg .edge-pattern-dashed{stroke-dasharray:3;}#my-svg .edge-pattern-dotted{stroke-dasharray:2;}#my-svg .marker{fill:#333333;stroke:#333333;}#my-svg .marker.cross{stroke:#333333;}#my-svg svg{font-family:"trebuchet ms",verdana,arial,sans-serif;font-size:16px;}#my-svg p{margin:0;}#my-svg .commit-id,#my-svg .commit-msg,#my-svg .branch-label{fill:lightgrey;color:lightgrey;font-family:'trebuchet ms',verdana,arial,sans-serif;font-family:var(--mermaid-font-family);}#my-svg .branch-label0{fill:#ffffff;}#my-svg .commit0{stroke:hsl(240, 100%, 46.2745098039%);fill:hsl(240, 100%, 46.2745098039%);}#my-svg .commit-highlight0{stroke:hsl(60, 100%, 3.7254901961%);fill:hsl(60, 100%, 3.7254901961%);}#my-svg .label0{fill:hsl(240, 100%, 46.2745098039%);}#my-svg .arrow0{stroke:hsl(240, 100%, 46.2745098039%);}#my-svg .branch-label1{fill:black;}#my-svg .commit1{stroke:hsl(60, 100%, 43.5294117647%);fill:hsl(60, 100%, 43.5294117647%);}#my-svg .commit-highlight1{stroke:rgb(0, 0, 160.5);fill:rgb(0, 0, 160.5);}#my-svg .label1{fill:hsl(60, 100%, 43.5294117647%);}#my-svg .arrow1{stroke:hsl(60, 100%, 43.5294117647%);}#my-svg .branch-label2{fill:black;}#my-svg .commit2{stroke:hsl(80, 100%, 46.2745098039%);fill:hsl(80, 100%, 46.2745098039%);}#my-svg .commit-highlight2{stroke:rgb(48.8333333334, 0, 146.5000000001);fill:rgb(48.8333333334, 0, 146.5000000001);}#my-svg .label2{fill:hsl(80, 100%, 46.2745098039%);}#my-svg .arrow2{stroke:hsl(80, 100%, 46.2745098039%);}#my-svg .branch-label3{fill:#ffffff;}#my-svg .commit3{stroke:hsl(210, 100%, 46.2745098039%);fill:hsl(210, 100%, 46.2745098039%);}#my-svg .commit-highlight3{stroke:rgb(146.5000000001, 73.2500000001, 0);fill:rgb(146.5000000001, 73.2500000001, 0);}#my-svg .label3{fill:hsl(210, 100%, 46.2745098039%);}#my-svg .arrow3{stroke:hsl(210, 100%, 46.2745098039%);}#my-svg .branch-label4{fill:black;}#my-svg .commit4{stroke:hsl(180, 100%, 46.2745098039%);fill:hsl(180, 100%, 46.2745098039%);}#my-svg .commit-highlight4{stroke:rgb(146.5000000001, 0, 0);fill:rgb(146.5000000001, 0, 0);}#my-svg .label4{fill:hsl(180, 100%, 46.2745098039%);}#my-svg .arrow4{stroke:hsl(180, 100%, 46.2745098039%);}#my-svg .branch-label5{fill:black;}#my-svg .commit5{stroke:hsl(150, 100%, 46.2745098039%);fill:hsl(150, 100%, 46.2745098039%);}#my-svg .commit-highlight5{stroke:rgb(146.5000000001, 0, 73.2500000001);fill:rgb(146.5000000001, 0, 73.2500000001);}#my-svg .label5{fill:hsl(150, 100%, 46.2745098039%);}#my-svg .arrow5{stroke:hsl(150, 100%, 46.2745098039%);}#my-svg .branch-label6{fill:black;}#my-svg .commit6{stroke:hsl(300, 100%, 46.2745098039%);fill:hsl(300, 100%, 46.2745098039%);}#my-svg .commit-highlight6{stroke:rgb(0, 146.5000000001, 0);fill:rgb(0, 146.5000000001, 0);}#my-svg .label6{fill:hsl(300, 100%, 46.2745098039%);}#my-svg .arrow6{stroke:hsl(300, 100%, 46.2745098039%);}#my-svg .branch-label7{fill:black;}#my-svg .commit7{stroke:hsl(0, 100%, 46.2745098039%);fill:hsl(0, 100%, 46.2745098039%);}#my-svg .commit-highlight7{stroke:rgb(0, 146.5000000001, 146.5000000001);fill:rgb(0, 146.5000000001, 146.5000000001);}#my-svg .label7{fill:hsl(0, 100%, 46.2745098039%);}#my-svg .arrow7{stroke:hsl(0, 100%, 46.2745098039%);}#my-svg .branch-label8{fill:#ffffff;}#my-svg .commit8{stroke:hsl(240, 100%, 46.2745098039%);fill:hsl(240, 100%, 46.2745098039%);}#my-svg .commit-highlight8{stroke:hsl(60, 100%, 3.7254901961%);fill:hsl(60, 100%, 3.7254901961%);}#my-svg .label8{fill:hsl(240, 100%, 46.2745098039%);}#my-svg .arrow8{stroke:hsl(240, 100%, 46.2745098039%);}#my-svg .branch-label9{fill:black;}#my-svg .commit9{stroke:hsl(60, 100%, 43.5294117647%);fill:hsl(60, 100%, 43.5294117647%);}#my-svg .commit-highlight9{stroke:rgb(0, 0, 160.5);fill:rgb(0, 0, 160.5);}#my-svg .label9{fill:hsl(60, 100%, 43.5294117647%);}#my-svg .arrow9{stroke:hsl(60, 100%, 43.5294117647%);}#my-svg .branch-label10{fill:black;}#my-svg .commit10{stroke:hsl(80, 100%, 46.2745098039%);fill:hsl(80, 100%, 46.2745098039%);}#my-svg .commit-highlight10{stroke:rgb(48.8333333334, 0, 146.5000000001);fill:rgb(48.8333333334, 0, 146.5000000001);}#my-svg .label10{fill:hsl(80, 100%, 46.2745098039%);}#my-svg .arrow10{stroke:hsl(80, 100%, 46.2745098039%);}#my-svg .branch-label11{fill:#ffffff;}#my-svg .commit11{stroke:hsl(210, 100%, 46.2745098039%);fill:hsl(210, 100%, 46.2745098039%);}#my-svg .commit-highlight11{stroke:rgb(146.5000000001, 73.2500000001, 0);fill:rgb(146.5000000001, 73.2500000001, 0);}#my-svg .label11{fill:hsl(210, 100%, 46.2745098039%);}#my-svg .arrow11{stroke:hsl(210, 100%, 46.2745098039%);}#my-svg .branch{stroke-width:1;stroke:#333333;stroke-dasharray:2;}#my-svg .commit-label{font-size:10px;fill:#000021;}#my-svg .commit-label-bkg{font-size:10px;fill:#ffffde;opacity:0.5;}#my-svg .tag-label{font-size:10px;fill:#131300;}#my-svg .tag-label-bkg{fill:#ECECFF;stroke:hsl(240, 60%, 86.2745098039%);}#my-svg .tag-hole{fill:#333;}#my-svg .commit-merge{stroke:#ECECFF;fill:#ECECFF;}#my-svg .commit-reverse{stroke:#ECECFF;fill:#ECECFF;stroke-width:3;}#my-svg .commit-highlight-inner{stroke:#ECECFF;fill:#ECECFF;}#my-svg .arrow{stroke-width:8;stroke-linecap:round;fill:none;}#my-svg .gitTitleText{text-anchor:middle;font-size:18px;fill:#333;}#my-svg .node .neo-node{stroke:#9370DB;}#my-svg [data-look="neo"].node rect,#my-svg [data-look="neo"].cluster rect,#my-svg [data-look="neo"].node polygon{stroke:#9370DB;filter:drop-shadow(1px 2px 2px rgba(185, 185, 185, 1));}#my-svg [data-look="neo"].node path{stroke:#9370DB;stroke-width:1px;}#my-svg [data-look="neo"].node .outer-path{filter:drop-shadow(1px 2px 2px rgba(185, 185, 185, 1));}#my-svg [data-look="neo"].node .neo-line path{stroke:#9370DB;filter:none;}#my-svg [data-look="neo"].node circle{stroke:#9370DB;filter:drop-shadow(1px 2px 2px rgba(185, 185, 185, 1));}#my-svg [data-look="neo"].node circle .state-start{fill:#000000;}#my-svg [data-look="neo"].icon-shape .icon{fill:#9370DB;filter:drop-shadow(1px 2px 2px rgba(185, 185, 185, 1));}#my-svg [data-look="neo"].icon-shape .icon-neo path{stroke:#9370DB;filter:drop-shadow(1px 2px 2px rgba(185, 185, 185, 1));}#my-svg :root{--mermaid-font-family:"trebuchet ms",verdana,arial,sans-serif;}</style><g/><g class="commit-bullets"/><g class="commit-labels"/><g><line x1="0" y1="-2" x2="500" y2="-2" class="branch branch0"/><rect class="branchLabelBkg label0" style="" rx="4" ry="4" x="-68.6875" y="1.5" width="52.6875" height="21" transform="translate(-19, -14)"/><g class="branchLabel"><g class="label branch-label0" transform="translate(-78.6875, -12.5)"><text><tspan xml:space="preserve" dy="1em" x="0" class="row">main</tspan></text></g></g><line x1="0" y1="88" x2="500" y2="88" class="branch branch1"/><rect class="branchLabelBkg label1" style="" rx="4" ry="4" x="-90.1484375" y="1.5" width="74.1484375" height="21" transform="translate(-19, 76)"/><g class="branchLabel"><g class="label branch-label1" transform="translate(-100.1484375, 77.5)"><text><tspan xml:space="preserve" dy="1em" x="0" class="row">develop</tspan></text></g></g><line x1="0" y1="178" x2="500" y2="178" class="branch branch2"/><rect class="branchLabelBkg label2" style="" rx="4" ry="4" x="-122.953125" y="1.5" width="106.953125" height="21" transform="translate(-19, 166)"/><g class="branchLabel"><g class="label branch-label2" transform="translate(-132.953125, 167.5)"><text><tspan xml:space="preserve" dy="1em" x="0" class="row">feature-login</tspan></text></g></g><line x1="0" y1="268" x2="500" y2="268" class="branch branch3"/><rect class="branchLabelBkg label3" style="" rx="4" ry="4" x="-127.4921875" y="1.5" width="111.4921875" height="21" transform="translate(-19, 256)"/><g class="branchLabel"><g class="label branch-label3" transform="translate(-137.4921875, 257.5)"><text><tspan xml:space="preserve" dy="1em" x="0" class="row">release-1.2.0</tspan></text></g></g><line x1="0" y1="358" x2="500" y2="358" class="branch branch4"/><rect class="branchLabelBkg label4" style="" rx="4" ry="4" x="-113.2578125" y="1.5" width="97.2578125" height="21" transform="translate(-19, 346)"/><g class="branchLabel"><g class="label branch-label4" transform="translate(-123.2578125, 347.5)"><text><tspan xml:space="preserve" dy="1em" x="0" class="row">hotfix-1.2.1</tspan></text></g></g></g><g class="commit-arrows"><path d="M 10 -2 L 10 68 A 20 20, 0, 0, 0, 30 88 L 60 88" class="arrow arrow1"/><path d="M 60 88 L 60 158 A 20 20, 0, 0, 0, 80 178 L 110 178" class="arrow arrow2"/><path d="M 60 88 L 160 88" class="arrow arrow1"/><path d="M 110 178 L 140 178 A 20 20, 0, 0, 0, 160 158 L 160 88" class="arrow arrow2"/><path d="M 160 88 L 160 248 A 20 20, 0, 0, 0, 180 268 L 210 268" class="arrow arrow3"/><path d="M 10 -2 L 260 -2" class="arrow arrow0"/><path d="M 210 268 L 240 268 A 20 20, 0, 0, 0, 260 248 L 260 -2" class="arrow arrow3"/><path d="M 160 88 L 310 88" class="arrow arrow1"/><path d="M 210 268 L 290 268 A 20 20, 0, 0, 0, 310 248 L 310 88" class="arrow arrow3"/><path d="M 260 -2 L 260 338 A 20 20, 0, 0, 0, 280 358 L 360 358" class="arrow arrow4"/><path d="M 260 -2 L 410 -2" class="arrow arrow0"/><path d="M 360 358 L 390 358 A 20 20, 0, 0, 0, 410 338 L 410 -2" class="arrow arrow4"/><path d="M 310 88 L 460 88" class="arrow arrow1"/><path d="M 360 358 L 440 358 A 20 20, 0, 0, 0, 460 338 L 460 88" class="arrow arrow4"/></g><g class="commit-bullets"><circle cx="10" cy="-2" r="10" class="commit init commit0"/><circle cx="60" cy="88" r="10" class="commit dev commit1"/><circle cx="110" cy="178" r="10" class="commit feature commit2"/><circle cx="160" cy="88" r="10" class="commit merge feature commit1"/><circle cx="160" cy="88" r="6" class="commit commit-merge merge feature commit1"/><circle cx="210" cy="268" r="10" class="commit release prep commit3"/><circle cx="260" cy="-2" r="10" class="commit v1.2.0 commit0"/><circle cx="260" cy="-2" r="6" class="commit commit-merge v1.2.0 commit0"/><circle cx="310" cy="88" r="10" class="commit sync release commit1"/><circle cx="310" cy="88" r="6" class="commit commit-merge sync release commit1"/><circle cx="360" cy="358" r="10" class="commit hotfix commit4"/><circle cx="410" cy="-2" r="10" class="commit v1.2.1 commit0"/><circle cx="410" cy="-2" r="6" class="commit commit-merge v1.2.1 commit0"/><circle cx="460" cy="88" r="10" class="commit sync hotfix commit1"/><circle cx="460" cy="88" r="6" class="commit commit-merge sync hotfix commit1"/></g><g class="commit-labels"><g transform="translate(-16.24185546875, 14.421660156249999) rotate(-45, 0, -2)"><rect class="commit-label-bkg" x="1.49755859375" y="11.5" width="17.0048828125" height="15"/><text x="3.49755859375" y="23" class="commit-label">init</text></g><g transform="translate(-17.4275, 15.4825) rotate(-45, 50, 88)"><rect class="commit-label-bkg" x="49.9375" y="101.5" width="20.125" height="15"/><text x="51.9375" y="113" class="commit-label">dev</text></g><g transform="translate(-23.29708984375, 20.73423828125) rotate(-45, 100, 178)"><rect class="commit-label-bkg" x="92.21435546875" y="191.5" width="35.5712890625" height="15"/><text x="94.21435546875" y="203" class="commit-label">feature</text></g><g transform="translate(-35.12384765625, 31.31607421875) rotate(-45, 150, 88)"><rect class="commit-label-bkg" x="126.65283203125" y="101.5" width="66.6943359375" height="15"/><text x="128.65283203125" y="113" class="commit-label">merge feature</text></g><g transform="translate(-32.5911328125, 29.0499609375) rotate(-45, 200, 268)"><rect class="commit-label-bkg" x="179.9853515625" y="281.5" width="60.029296875" height="15"/><text x="181.9853515625" y="293" class="commit-label">release prep</text></g><g transform="translate(-21.81828125, 19.41109375) rotate(-45, 250, -2)"><rect class="commit-label-bkg" x="244.16015625" y="11.5" width="31.6796875" height="15"/><text x="246.16015625" y="23" class="commit-label">v1.2.0</text></g><g transform="translate(-32.798945312499995, 29.2358984375) rotate(-45, 300, 88)"><rect class="commit-label-bkg" x="279.7119140625" y="101.5" width="60.576171875" height="15"/><text x="281.7119140625" y="113" class="commit-label">sync release</text></g><g transform="translate(-20.384375, 18.128125) rotate(-45, 350, 358)"><rect class="commit-label-bkg" x="346.046875" y="371.5" width="27.90625" height="15"/><text x="348.046875" y="383" class="commit-label">hotfix</text></g><g transform="translate(-21.81828125, 19.41109375) rotate(-45, 400, -2)"><rect class="commit-label-bkg" x="394.16015625" y="11.5" width="31.6796875" height="15"/><text x="396.16015625" y="23" class="commit-label">v1.2.1</text></g><g transform="translate(-29.255, 26.064999999999998) rotate(-45, 450, 88)"><rect class="commit-label-bkg" x="434.375" y="101.5" width="51.25" height="15"/><text x="436.375" y="113" class="commit-label">sync hotfix</text></g></g></svg>